<svg xmlns="http://www.w3.org/2000/svg" viewBox="0 0 96 96" role="img" aria-labelledby="title desc">
  <title id="title">Android Studio</title>
  <desc id="desc">Android Studio mobile development skill icon</desc>
  <rect width="96" height="96" rx="18" fill="#073042"/>
  <path fill="#3ddc84" d="M29 40h38c4.4 0 8 3.6 8 8v18c0 8.3-6.7 15-15 15H36c-8.3 0-15-6.7-15-15V48c0-4.4 3.6-8 8-8Z"/>
  <path stroke="#3ddc84" stroke-width="5" stroke-linecap="round" d="m33 34-7-11m37 11 7-11"/>
  <rect x="32" y="54" width="8" height="8" rx="4" fill="#073042"/>
  <rect x="56" y="54" width="8" height="8" rx="4" fill="#073042"/>
  <path fill="#fff" d="M47.5 17 22 71h12.2l4.6-10.4h18.4L61.8 71H74L48.5 17h-1Zm0 22.4 5.7 13H41.8l5.7-13Z" opacity=".28"/>
</svg>
